<?xml version="1.0" encoding="utf-8"?>
<!-- Generator: Adobe Illustrator 23.0.1, SVG Export Plug-In . SVG Version: 6.00 Build 0)  -->
<svg version="1.1" id="Layer_1" xmlns="http://www.w3.org/2000/svg" xmlns:xlink="http://www.w3.org/1999/xlink" x="0px" y="0px"
	 viewBox="0 0 400 400" style="enable-background:new 0 0 400 400;" xml:space="preserve">
<style type="text/css">
	.st0{fill:#242322;}
	.st1{fill:#FCEAB3;}
	.st2{fill:#8B6D63;}
	.st3{fill:#FDB101;}
	.st4{fill:#FEFEFE;}
	.st5{fill:#DF3A36;}
</style>
<path class="st0" d="M168,156.1c0.2-3-0.2-6.1,0.5-9.1c1.8-7.4,6.4-12.1,13.9-14.1c1.2-0.3,1.5-0.7,1.5-1.9c0-12.6,0-25.2,0-37.8
	c0-0.8,0.1-1.5-1.1-1.8c-1-0.2-1.3-1.2-1.3-2.2c0-4.8,0-9.5,0-14.3c0-1.7,0.9-2.5,2.7-2.5c10.2,0,20.5,0,30.7,0
	c2.2,0,2.9,0.7,2.9,2.8c0,4.5,0,9.1,0,13.6c0,1.3-0.3,2.4-1.8,2.7c-0.9,0.2-0.6,0.8-0.6,1.3c0,3,0,6,0,9c0,9.8,0,19.6,0,29.3
	c0,1,0.3,1.4,1.3,1.7c8.9,2.3,14.5,9.3,14.5,18.3c0,2.3,0.1,4.6,0.1,6.9c0,0.2,0,0.4,0,0.5c-0.2,8-0.2,16.1,0,24.1
	c0,1.3-0.1,2.5-0.1,3.8c0,0.4-0.2,1,0.7,0.9c3.4,0,6.9,0,10.3,0c1.2,0.3,1.7-0.1,1.6-1.3c-0.1-0.9-0.1-1.8-0.1-2.7
	c0-6.8,0-13.6,0.1-20.3c0-5.2-0.2-10.5,0.2-15.7c0.2-0.6,0.3-1.2,0.5-1.8c2.4-6.8,7.1-11.1,14.4-12.8c1-0.2,0.7-0.8,0.7-1.3
	c0-7.5,0-15,0-22.4c0-5.3,0-10.7,0-16c0-0.6,0.1-1.2-0.9-1.4c-1-0.2-1.5-1.1-1.5-2.1c0-4.9,0-9.7,0-14.6c0-1.6,0.9-2.4,2.5-2.4
	c10.4,0,20.8,0,31.3,0c1.7,0,2.5,0.8,2.5,2.5c0,4.8,0,9.5,0,14.3c0,1.2-0.5,2-1.6,2.3c-0.8,0.2-0.8,0.6-0.8,1.1
	c0,12.9,0,25.9,0,38.8c0,0.9,0.3,1.1,1.2,1.3c9.2,2.3,14.7,9.4,14.7,18.7c0,11.5,0,23,0,34.5c0,1.3,0.4,1.6,1.7,1.5
	c4.5-0.1,9,0,13.6,0c2.6,0,3.7,1.1,3.7,3.6c0,36.4,0,72.8,0,109.2c0,2.5-1.2,3.6-3.7,3.6c-1.9,0-3.9,0-5.8,0
	c-77.4,0-154.9,0-232.3,0c-2.3,0-4.5,0-6.8,0c-3,0-4.1-1.1-4.1-4c0-13,0-26,0-39c0-23.1,0-46.2,0-69.3c0-3.4,0.9-4.3,4.4-4.3
	c4.3,0,8.6,0,12.9,0c1.3,0,1.7-0.3,1.6-1.6c-0.1-11.4,0-22.9,0-34.3c0-8,3.6-13.9,11-17.6c0.8-0.4,1.7-0.9,2.6-0.9
	c2.1-0.1,2.3-1.3,2.3-3c-0.1-12.3,0-24.6,0-36.9c0-0.8,0.2-1.6-1.1-1.9c-0.9-0.2-1.3-1.1-1.3-2.1c0-4.8,0-9.6,0-14.4
	c0-1.6,0.9-2.4,2.6-2.4c10.4,0,20.7,0,31.1,0c1.8,0,2.6,0.8,2.6,2.6c0,4.7,0,9.4,0,14.1c0,1.1-0.4,2-1.4,2.3c-1,0.3-1,0.8-1,1.5
	c0,12.8,0,25.7,0,38.5c0,0.7,0,1.1,0.9,1.3c6.3,1.4,10.7,5.2,13.5,10.8c0.3,0.7,0.5,1.4,0.8,2.1c0.7,3,0.7,6.1,0.7,9.2
	c0,8.4,0,16.8,0.1,25.2c0,2.2,0,4.4,0,6.7c-0.1,0.7,0.4,0.6,0.8,0.6c2,0,3.9,0,5.9-0.1c1.5,0,3.1,0,4.6,0.1c0.8,0,1.3-0.2,1.1-1.1
	c-0.1-0.5-0.1-0.9-0.1-1.4c0-0.6,0.1-1.2,0.1-1.7c0-6.5,0-13,0-19.5c0-2-0.1-4-0.1-6.1C168.1,157.2,168.2,156.7,168,156.1z
	 M133.1,108c0-5.1,0-10.2,0.1-15.4c0-0.8-0.3-1-1-1c-5.6,0-11.1,0-16.7,0c-0.7,0-1,0.1-1,0.9c0.1,4.4,0.1,8.9,0.1,13.3
	c-0.2,5.2-0.2,10.4,0,15.6c0,4.5,0,9-0.1,13.5c0,2.4-1.1,3.5-3.4,3.6c-7.7,0.6-12.4,5.5-12.4,13.1c0,11.5,0.1,23,0,34.5
	c0,1.2,0.4,1.4,1.5,1.4c15.8,0,31.5,0,47.3,0.1c1.2,0,1.6-0.3,1.6-1.5c0-11.8,0-23.5,0-35.3c0-6.6-5-11.6-11.8-12.2
	c-3.1-0.3-4-1.2-4-4.2c0-4.3-0.1-8.5-0.1-12.8C133.3,117,133.2,112.5,133.1,108z M208.9,107.7c0-5,0-10,0.1-15c0-0.8-0.2-1-1-1
	c-5.6,0-11.1,0-16.7,0c-0.8,0-1.1,0.2-1,1c0.1,5.1,0.1,10.2,0.1,15.4c-0.1,4.5-0.2,9,0,13.5c0,4.3-0.1,8.7-0.1,13
	c0,2.9-0.9,3.8-3.8,4.1c-7.2,0.6-12,5.6-12,12.6c0,11.5,0,23,0,34.5c0,1.3,0.2,1.8,1.8,1.8c15.6-0.1,31.2-0.1,46.8,0
	c1.6,0,1.9-0.5,1.9-1.9c-0.1-11.4-0.2-22.8,0-34.1c0.1-6.3-4.7-12.6-12.3-13c-2.7-0.1-3.6-1.2-3.6-3.9c0-4.4-0.1-8.8-0.1-13.1
	C209.1,116.9,209.1,112.3,208.9,107.7z M284.6,107.3c0.3-4.9,0.1-9.9,0.2-14.9c0-0.8-0.4-0.8-1-0.8c-5.5,0-11.1,0-16.6,0
	c-0.8,0-1.1,0.2-1.1,1c0.1,5.1,0.1,10.2,0.1,15.3c0,4.5,0,9,0,13.5c0,4.5,0,9.1-0.1,13.6c0,2.2-1.1,3.2-3.3,3.4
	c-0.4,0-0.8,0.1-1.1,0.1c-6.7,0.8-11.4,5.7-11.4,12.2c-0.1,11.7,0,23.5,0,35.2c0,1.1,0.4,1.4,1.5,1.4c4.1-0.1,8.3-0.1,12.4-0.1
	c11.6,0,23.2,0,34.9,0c0.6,0,1.5,0.4,1.7-0.7c0-0.2,0.1-0.4,0.1-0.6c0-11.9,0-23.7,0-35.6c0-0.4-0.1-0.7-0.2-1.1
	c-1-6.2-5.3-10.2-11.6-10.9c-3.5-0.4-4.2-1.1-4.2-4.5c0-4.2-0.1-8.4-0.1-12.6C284.9,116.7,284.9,112,284.6,107.3z M199.6,230.5
	c-39.3,0-78.6,0-117.9,0c-1.5,0-2,0.3-2,1.8c0.1,8.9,0.1,17.8,0,26.8c0,1.6,0.5,1.9,2.1,1.9c14.9-0.1,29.9,0,44.8,0
	c63.7,0,127.4,0,191.1,0c1.6,0,1.9-0.5,1.9-1.9c-0.1-8.8,0-17.6,0-26.5c0-2.1,0-2.1-2.2-2.1C278.2,230.5,238.9,230.5,199.6,230.5z
	 M199.7,224.1c39.3,0,78.7,0,118,0c1.5,0,1.9-0.4,1.9-1.9c-0.1-8.8,0-17.5,0-26.3c0-2.7,0.3-2.3-2.3-2.3c-40.5,0-81,0-121.5,0
	c-38,0-76.1,0-114.1-0.1c-1.7,0-2.2,0.4-2.1,2c0.1,8.8,0.1,17.6,0,26.5c0,1.6,0.4,2,2.1,2C121,224.1,160.4,224.1,199.7,224.1z
	 M199.8,297.6c39.2,0,78.5,0,117.7,0c2.1,0,2.1,0,2.1-2.1c0-8.8,0-17.6,0-26.5c0-1.5-0.4-2-2-2c-13.2,0.1-26.4,0-39.7,0
	c-8.3,0-16.5,0-24.8,0c-45.4,0-90.7,0-136.1,0c-11.8,0-23.7,0-35.5,0c-1.5,0-1.8,0.4-1.8,1.8c0.1,8.8,0,17.6,0,26.5
	c0,2.3,0,2.3,2.3,2.3C121.3,297.6,160.6,297.6,199.8,297.6z M199.6,87.4c4.1,0,8.3,0,12.4,0c1.1,0,1.5-0.3,1.4-1.4
	c-0.1-2.6,0-5.1,0-7.7c0-1.1-0.4-1.5-1.6-1.5c-8.2,0-16.3,0-24.5,0c-1.1,0-1.4,0.4-1.4,1.4c0.1,2.6,0.1,5.1,0,7.7
	c0,1.1,0.3,1.5,1.5,1.5C191.5,87.4,195.6,87.4,199.6,87.4z M123.9,87.4c4,0,8,0,12.1,0c1.1,0,1.6-0.2,1.5-1.4
	c-0.1-2.6-0.1-5.2,0-7.9c0-1-0.3-1.3-1.3-1.3c-8.2,0-16.4,0-24.6,0c-1,0-1.3,0.4-1.3,1.3c0,2.6,0.1,5.2,0,7.9c0,1.2,0.5,1.4,1.6,1.4
	C115.8,87.4,119.9,87.4,123.9,87.4z M275.4,87.4c4.1,0,8.2,0,12.2,0c1.1,0,1.5-0.3,1.4-1.4c-0.1-2.6-0.1-5.2,0-7.9
	c0-1.1-0.4-1.4-1.5-1.4c-8.2,0-16.3,0-24.5,0c-1,0-1.3,0.3-1.3,1.3c0,2.6,0.1,5.2,0,7.9c0,1.2,0.4,1.4,1.5,1.4
	C267.3,87.4,271.3,87.4,275.4,87.4z"/>
<path class="st1" d="M244.5,145.5c-0.2,0.6-0.3,1.2-0.5,1.8"/>
<path class="st1" d="M231.4,158.6"/>
<path class="st2" d="M199.6,230.5c39.3,0,78.6,0,117.9,0c2.1,0,2.2,0,2.2,2.1c0,8.8,0,17.6,0,26.5c0,1.4-0.4,1.9-1.9,1.9
	c-63.7,0-127.4,0-191.1,0c-14.9,0-29.9,0-44.8,0c-1.5,0-2.1-0.3-2.1-1.9c0.1-8.9,0.1-17.8,0-26.8c0-1.5,0.5-1.8,2-1.8
	C121,230.5,160.3,230.5,199.6,230.5z"/>
<path class="st2" d="M199.7,224.1c-39.3,0-78.7,0-118,0c-1.7,0-2.1-0.4-2.1-2c0.1-8.8,0.1-17.6,0-26.5c0-1.6,0.5-2.1,2.1-2
	c38,0.1,76.1,0.1,114.1,0.1c40.5,0,81,0,121.5,0c2.7,0,2.3-0.4,2.3,2.3c0,8.8,0,17.5,0,26.3c0,1.5-0.4,1.9-1.9,1.9
	C278.4,224.1,239.1,224.1,199.7,224.1z M298.2,207.8c0,3.4,2.9,6.2,6.4,6.2c3.3,0,6.3-2.9,6.4-6.1c0-3.5-2.8-6.3-6.5-6.3
	C300.9,201.6,298.1,204.3,298.2,207.8z M88.4,207.9c0,3.4,3,6.2,6.4,6.1c3.5-0.1,6.3-2.9,6.2-6.3c0-3.5-2.8-6.1-6.4-6.1
	C91.1,201.7,88.4,204.4,88.4,207.9z"/>
<path class="st2" d="M199.8,297.6c-39.2,0-78.5,0-117.7,0c-2.3,0-2.3,0-2.3-2.3c0-8.8,0-17.6,0-26.5c0-1.4,0.4-1.8,1.8-1.8
	c11.8,0.1,23.7,0,35.5,0c45.4,0,90.7,0,136.1,0c8.3,0,16.5,0,24.8,0c13.2,0,26.4,0,39.7,0c1.6,0,2,0.5,2,2c-0.1,8.8,0,17.6,0,26.5
	c0,2.1,0,2.1-2.1,2.1C278.3,297.6,239,297.6,199.8,297.6z M304.6,276.3c-3.6,0-6.4,2.6-6.4,6c0,3.6,2.7,6.3,6.4,6.3
	c3.4,0,6.3-2.7,6.4-6.1C311,279,308.1,276.3,304.6,276.3z M94.8,276.3c-3.6,0-6.4,2.6-6.4,6.1c0,3.4,2.7,6.1,6.2,6.2
	c3.5,0,6.5-2.7,6.5-6.1C101.2,278.9,98.5,276.3,94.8,276.3z"/>
<path class="st3" d="M133.1,121.5c0,4.3,0.1,8.5,0.1,12.8c0,3.1,0.9,4,4,4.2c6.8,0.6,11.8,5.6,11.8,12.2c0.1,11.8,0,23.5,0,35.3
	c0,1.2-0.4,1.5-1.6,1.5c-15.8-0.1-31.5-0.1-47.3-0.1c-1.1,0-1.5-0.1-1.5-1.4c0-11.5,0-23,0-34.5c0-7.5,4.7-12.5,12.4-13.1
	c2.4-0.2,3.4-1.3,3.4-3.6c0.1-4.5,0.1-9,0.1-13.5C120.8,121.4,127,121.5,133.1,121.5z"/>
<path class="st3" d="M284.7,121.4c0,4.2,0.1,8.4,0.1,12.6c0,3.5,0.7,4.2,4.2,4.5c6.3,0.6,10.6,4.7,11.6,10.9
	c0,9.1-0.1,18.1-0.1,27.2c0,3.4-0.2,6.7,0.1,10.1c-0.2,1.1-1.1,0.7-1.7,0.7c-11.6,0-23.2,0-34.9,0c-4.1,0-8.3,0-12.4,0.1
	c-1.1,0-1.5-0.3-1.5-1.4c0-11.7,0-23.5,0-35.2c0-6.5,4.7-11.4,11.4-12.2c0.4,0,0.8-0.1,1.1-0.1c2.2-0.2,3.3-1.3,3.3-3.4
	c0-4.5,0.1-9.1,0.1-13.6C272.3,121.4,278.5,121.4,284.7,121.4z"/>
<path class="st3" d="M208.9,121.5c0,4.4,0.1,8.8,0.1,13.1c0,2.7,0.9,3.8,3.6,3.9c7.6,0.4,12.4,6.6,12.3,13
	c-0.2,11.4-0.1,22.8,0,34.1c0,1.4-0.3,1.9-1.9,1.9c-15.6-0.1-31.2-0.1-46.8,0c-1.5,0-1.8-0.5-1.8-1.8c0.1-11.5,0-23,0-34.5
	c0-7,4.8-12.1,12-12.6c2.9-0.2,3.8-1.2,3.8-4.1c0-4.3,0.1-8.7,0.1-13C196.6,121.3,202.7,121.4,208.9,121.5z"/>
<path class="st4" d="M266.2,107.9c0-5.1,0-10.2-0.1-15.3c0-0.8,0.3-1,1.1-1c5.5,0,11.1,0,16.6,0c0.6,0,1,0.1,1,0.8
	c-0.1,5,0.2,9.9-0.2,14.9c-1.1,0.2-2,0.7-3.2,0.6C276.4,107.4,271.3,107.5,266.2,107.9z"/>
<path class="st4" d="M190.4,108c0-5.1,0-10.2-0.1-15.4c0-0.8,0.3-1,1-1c5.6,0,11.1,0,16.7,0c0.8,0,1,0.3,1,1c-0.1,5-0.1,10-0.1,15
	c-5.4,0-10.9,0-16.3,0C191.9,107.6,191.1,107.8,190.4,108z"/>
<path class="st4" d="M114.6,105.8c0-4.4-0.1-8.9-0.1-13.3c0-0.7,0.3-0.9,1-0.9c5.6,0,11.1,0,16.7,0c0.8,0,1,0.2,1,1
	c-0.1,5.1-0.1,10.2-0.1,15.4c-0.6-0.4-1.3-0.3-1.9-0.3c-3.5,0-6.9-0.1-10.4,0c-2.2,0.1-4.4,0.2-5.9-1.9
	C114.9,105.8,114.8,105.8,114.6,105.8z"/>
<path class="st5" d="M199.6,87.4c-4,0-8,0-12.1,0c-1.2,0-1.5-0.4-1.5-1.5c0.1-2.6,0.1-5.1,0-7.7c0-1,0.2-1.4,1.4-1.4
	c8.2,0,16.3,0,24.5,0c1.2,0,1.6,0.4,1.6,1.5c0,2.6,0,5.1,0,7.7c0,1-0.4,1.4-1.4,1.4C207.9,87.4,203.7,87.4,199.6,87.4z"/>
<path class="st5" d="M123.9,87.4c-4,0-8,0-12.1,0c-1.1,0-1.6-0.2-1.6-1.4c0.1-2.6,0-5.2,0-7.9c0-0.9,0.3-1.3,1.3-1.3
	c8.2,0,16.4,0,24.6,0c1,0,1.3,0.4,1.3,1.3c-0.1,2.6-0.1,5.2,0,7.9c0,1.2-0.4,1.4-1.5,1.4C131.9,87.4,127.9,87.4,123.9,87.4z"/>
<path class="st5" d="M275.4,87.4c-4,0-8,0-12.1,0c-1.1,0-1.6-0.2-1.5-1.4c0.1-2.6,0.1-5.2,0-7.9c0-1,0.3-1.3,1.3-1.3
	c8.2,0,16.3,0,24.5,0c1,0,1.5,0.3,1.5,1.4c-0.1,2.6-0.1,5.2,0,7.9c0,1.1-0.4,1.4-1.4,1.4C283.5,87.4,279.4,87.4,275.4,87.4z"/>
<path class="st1" d="M114.6,105.8c0.1,0,0.3,0,0.3,0c1.5,2,3.6,1.9,5.9,1.9c3.5-0.1,6.9,0,10.4,0c0.7,0,1.3-0.1,1.9,0.3
	c0.1,4.5,0.1,9,0,13.5c-6.2,0-12.3,0-18.5-0.1C114.5,116.2,114.4,111,114.6,105.8z"/>
<path class="st1" d="M266.2,107.9c5.1-0.4,10.2-0.5,15.3,0c1.2,0.1,2.1-0.4,3.2-0.6c0.2,4.7,0.2,9.4,0,14.1c-6.2,0-12.3,0-18.5,0
	C266.2,117,266.2,112.4,266.2,107.9z"/>
<path class="st1" d="M190.4,108c0.7-0.2,1.5-0.3,2.3-0.3c5.4,0,10.9,0,16.3,0c0.1,4.6,0.2,9.2,0,13.8c-6.2,0-12.3-0.2-18.5,0.1
	C190.2,117,190.2,112.5,190.4,108z"/>
<path class="st4" d="M242.3,187.4c-3.4,0-6.9,0-10.3,0"/>
<path class="st2" d="M300.7,186.8c-0.3-3.4-0.1-6.7-0.1-10.1c0-9.1,0-18.1,0.1-27.2c0.1,0.4,0.2,0.7,0.2,1.1c0,11.9,0,23.7,0,35.6
	C300.8,186.3,300.7,186.5,300.7,186.8z"/>
<path class="st1" d="M298.2,207.8c0-3.5,2.8-6.2,6.3-6.2c3.6,0,6.5,2.8,6.5,6.3c0,3.2-3.1,6.1-6.4,6.1
	C301,214,298.2,211.3,298.2,207.8z"/>
<path class="st1" d="M88.4,207.9c0-3.5,2.7-6.2,6.3-6.3c3.6-0.1,6.4,2.6,6.4,6.1c0,3.5-2.7,6.2-6.2,6.3
	C91.4,214.1,88.5,211.3,88.4,207.9z"/>
<path class="st1" d="M304.6,276.3c3.6,0,6.4,2.8,6.4,6.2c0,3.3-2.9,6.1-6.4,6.1c-3.7,0-6.4-2.7-6.4-6.3
	C298.2,278.9,301,276.3,304.6,276.3z"/>
<path class="st1" d="M94.8,276.3c3.7,0,6.3,2.7,6.3,6.2c0,3.4-3,6.1-6.5,6.1c-3.5,0-6.2-2.8-6.2-6.2
	C88.4,278.9,91.2,276.2,94.8,276.3z"/>
</svg>
